<?xml version="1.0" standalone="no"?>
<!DOCTYPE svg PUBLIC "-//W3C//DTD SVG 20010904//EN"
 "http://www.w3.org/TR/2001/REC-SVG-20010904/DTD/svg10.dtd">
<svg version="1.0" xmlns="http://www.w3.org/2000/svg"
 width="200px" height="90px" viewBox="0 0 854.000000 246.000000"
 preserveAspectRatio="xMidYMid meet">

<g transform="translate(0.000000,246.000000) scale(0.100000,-0.100000)"
fill="#127475" stroke="none">
<path d="M4170 2113 c-36 -14 -109 -54 -162 -90 -117 -77 -144 -119 -135 -208
l5 -54 -33 -11 c-103 -34 -169 -132 -164 -242 3 -53 -1 -70 -23 -108 -50 -83
-55 -193 -13 -257 14 -21 14 -27 -6 -65 -47 -92 -18 -226 62 -290 33 -26 37
-35 42 -88 9 -98 88 -211 164 -234 12 -4 37 -27 57 -51 111 -135 326 -133 435
5 l38 48 34 -46 c102 -138 315 -143 432 -12 23 26 61 57 83 68 76 38 133 128
141 223 5 52 9 61 43 88 79 63 108 198 63 290 -17 34 -18 43 -7 64 41 78 36
172 -14 257 -21 36 -26 55 -23 96 6 110 -42 196 -137 240 l-58 28 4 52 c7 89
-21 133 -137 208 -193 126 -324 150 -407 74 -19 -17 -22 -17 -34 -3 -43 52
-147 60 -250 18z m206 -57 l34 -34 0 -207 c0 -193 -1 -207 -17 -200 -52 21
-85 26 -99 14 -21 -17 -17 -28 14 -40 107 -44 102 -20 102 -454 0 -201 -3
-365 -7 -365 -5 0 -19 12 -33 27 -14 14 -47 37 -75 49 -42 20 -52 21 -64 10
-18 -19 -8 -32 47 -60 58 -29 85 -58 111 -116 36 -80 23 -166 -36 -231 -100
-111 -254 -110 -345 1 -18 23 -51 50 -73 62 -90 46 -137 117 -139 210 -1 56
-2 59 -53 103 -60 53 -77 94 -71 171 6 71 16 80 59 56 50 -29 107 -45 135 -38
40 10 26 38 -26 51 -88 23 -128 53 -155 118 -30 71 -16 149 39 214 22 26 25
35 16 58 -33 87 15 194 105 236 113 52 251 -21 274 -144 10 -57 16 -65 39 -51
24 15 18 66 -16 134 -32 63 -87 107 -158 125 -38 9 -50 18 -57 39 -21 64 24
147 90 165 52 15 91 3 133 -41 43 -44 70 -50 70 -15 0 26 -62 91 -97 102 -32
9 -29 17 15 38 68 31 116 46 161 46 36 1 48 -4 77 -33z m285 15 c69 -25 109
-44 109 -53 0 -4 -11 -10 -25 -14 -31 -8 -95 -78 -95 -104 0 -31 29 -24 70 18
20 22 51 42 68 45 81 16 162 -50 162 -133 0 -48 -15 -67 -59 -75 -100 -17
-185 -113 -186 -210 0 -43 3 -50 20 -50 16 0 21 9 27 49 17 124 159 200 273
147 91 -42 138 -149 105 -237 -9 -23 -7 -31 14 -53 38 -41 56 -86 56 -141 0
-102 -64 -175 -173 -195 -44 -8 -54 -20 -36 -41 17 -21 79 -11 138 22 54 30
63 24 69 -50 6 -76 -11 -118 -71 -172 -50 -45 -51 -48 -52 -102 -2 -92 -50
-164 -140 -210 -22 -12 -55 -39 -73 -62 -89 -108 -240 -112 -339 -8 -63 65
-63 64 -63 659 l0 539 28 31 c15 17 42 34 62 38 26 5 35 12 35 26 0 26 -57 33
-90 11 -14 -9 -27 -16 -30 -16 -3 0 -5 66 -5 146 l0 146 34 34 c41 41 83 44
167 15z"/>
<path d="M3904 1526 c-9 -22 4 -83 26 -127 26 -50 92 -104 145 -119 25 -7 45
-14 45 -17 0 -2 -7 -17 -15 -33 -16 -31 -80 -70 -114 -70 -22 0 -33 -21 -21
-40 13 -21 87 -6 129 27 20 16 46 49 58 72 19 37 32 48 79 67 67 27 96 51 92
78 -4 29 -22 30 -56 2 -16 -14 -53 -31 -81 -38 -113 -26 -213 45 -239 168 -8
41 -37 59 -48 30z"/>
<path d="M4100 1003 c-69 -36 -115 -95 -130 -167 -10 -49 -14 -55 -38 -58 -19
-2 -27 -9 -27 -22 0 -15 11 -23 45 -31 100 -26 153 -78 168 -166 6 -35 12 -45
30 -47 20 -3 22 1 22 38 0 75 -53 160 -122 196 -24 12 -28 21 -28 55 0 91 68
156 193 183 20 5 27 12 25 24 -6 30 -75 27 -138 -5z"/>
<path d="M4987 1563 c-4 -3 -7 -18 -7 -32 0 -38 -38 -109 -74 -135 -73 -55
-161 -57 -237 -6 -45 30 -69 30 -69 -1 0 -23 78 -76 125 -85 26 -5 35 -14 52
-54 26 -60 81 -100 144 -103 37 -2 44 1 44 17 0 14 -12 22 -47 33 -46 13 -98
60 -98 88 0 8 19 20 43 27 56 16 138 98 155 154 18 63 16 104 -6 104 -10 0
-22 -3 -25 -7z"/>
<path d="M4548 1094 c-20 -20 -7 -42 29 -49 84 -15 142 -62 168 -134 21 -61
19 -78 -12 -95 -73 -38 -126 -120 -127 -196 -1 -38 2 -45 19 -45 15 0 21 9 27
44 15 87 82 154 170 169 34 6 44 12 46 30 3 19 -1 22 -27 22 -26 0 -31 4 -31
24 0 72 -58 161 -130 200 -49 27 -120 43 -132 30z"/>
<path d="M150 1715 l0 -35 1670 0 1670 0 0 35 0 35 -1670 0 -1670 0 0 -35z"/>
<path d="M5367 1743 c-4 -3 -7 -19 -7 -35 l0 -28 1510 0 1510 0 0 35 0 35
-1503 0 c-827 0 -1507 -3 -1510 -7z"/>
<path d="M6082 1238 c3 -309 5 -346 21 -376 22 -40 84 -71 142 -72 37 0 153
25 163 35 2 2 -1 35 -8 74 -11 69 -12 70 -36 60 -35 -13 -41 -12 -64 11 -19
19 -20 33 -20 315 l0 295 -100 0 -101 0 3 -342z"/>
<path d="M220 1180 l0 -380 100 0 100 0 2 203 3 202 64 -143 65 -143 55 3 54
3 61 137 c33 76 64 134 68 130 5 -5 8 -95 6 -200 l-3 -192 103 0 102 0 0 380
0 380 -110 0 c-129 0 -107 21 -206 -197 -38 -84 -73 -151 -78 -150 -6 2 -45
80 -87 173 l-78 169 -110 3 -111 3 0 -381z"/>
<path d="M5430 1180 l0 -380 100 0 100 0 0 120 0 120 93 0 c115 0 179 26 227
91 102 142 60 327 -92 403 -50 25 -58 26 -240 26 l-188 0 0 -380z m352 183
c26 -23 25 -106 -2 -133 -16 -16 -33 -20 -85 -20 l-65 0 0 85 0 85 67 0 c48 0
72 -5 85 -17z"/>
<path d="M2480 1450 l0 -90 -35 0 -35 0 0 -69 0 -70 33 -3 32 -3 5 -165 c5
-180 11 -201 67 -237 46 -30 215 -21 270 15 9 6 8 25 -4 79 l-16 72 -43 -6
c-69 -9 -74 0 -74 133 l0 114 55 0 55 0 0 70 0 70 -55 0 -55 0 0 90 0 90 -100
0 -100 0 0 -90z"/>
<path d="M1268 1351 c-132 -52 -205 -186 -178 -329 35 -190 261 -288 454 -197
53 25 120 89 113 109 -1 4 -37 18 -79 30 -72 21 -76 21 -87 5 -6 -10 -29 -23
-51 -30 -56 -17 -114 1 -135 41 -8 16 -15 31 -15 35 0 3 90 5 199 5 l199 0 7
29 c9 43 -11 138 -41 188 -66 113 -250 167 -386 114z m187 -146 c14 -13 25
-33 25 -45 0 -19 -6 -20 -95 -20 -107 0 -114 6 -69 59 22 26 33 31 70 31 34 0
51 -6 69 -25z"/>
<path d="M2052 1353 c-23 -8 -56 -28 -72 -45 -32 -31 -33 -31 -30 20 l2 32
-91 0 -91 0 0 -280 0 -280 100 0 100 0 0 166 0 166 34 34 c40 40 83 45 112 13
17 -19 19 -41 22 -200 l3 -179 95 0 94 0 0 223 c0 211 -1 225 -22 267 -30 57
-74 80 -153 79 -33 0 -79 -7 -103 -16z"/>
<path d="M3070 1361 c-121 -37 -195 -129 -207 -254 -12 -128 50 -239 159 -288
76 -33 211 -34 285 0 55 24 141 107 127 121 -5 4 -41 15 -79 25 l-70 18 -39
-27 c-21 -14 -52 -26 -68 -26 -52 0 -108 41 -108 79 0 8 65 11 201 11 l202 0
-5 78 c-6 93 -29 143 -92 199 -25 22 -68 47 -97 56 -53 17 -164 21 -209 8z
m161 -160 c52 -52 42 -61 -66 -61 -89 0 -95 1 -95 20 0 36 44 70 90 70 33 0
48 -6 71 -29z"/>
<path d="M6650 1361 c-83 -26 -142 -74 -181 -151 -33 -65 -34 -195 -1 -262 27
-56 78 -103 141 -132 69 -30 207 -29 278 3 55 24 141 107 127 121 -5 4 -41 15
-79 25 l-70 18 -39 -27 c-21 -14 -52 -26 -68 -26 -52 0 -108 41 -108 79 0 8
65 11 201 11 l202 0 -5 78 c-6 93 -29 143 -92 199 -25 22 -68 47 -97 56 -53
17 -164 21 -209 8z m164 -162 c45 -53 38 -59 -69 -59 -89 0 -95 1 -95 20 0 37
44 70 94 70 37 0 48 -5 70 -31z"/>
<path d="M7429 1361 c-40 -13 -72 -31 -101 -59 l-28 -26 0 42 0 42 -85 0 -85
0 0 -280 0 -280 95 0 95 0 0 161 0 161 39 39 c44 44 80 50 111 19 19 -19 20
-33 20 -200 l0 -180 100 0 100 0 0 208 c0 116 -5 224 -11 245 -6 22 -25 55
-44 75 -32 35 -36 37 -107 39 -40 1 -85 -1 -99 -6z"/>
<path d="M7920 1356 c-67 -19 -120 -44 -120 -55 0 -9 37 -94 47 -110 2 -3 26
6 55 20 38 18 68 24 119 24 77 0 95 -11 105 -63 7 -32 6 -33 -22 -25 -16 4
-63 8 -104 8 -137 -1 -220 -64 -228 -173 -11 -177 205 -255 348 -126 l36 33
13 -35 c19 -52 93 -78 169 -58 20 6 22 12 22 85 0 66 -3 82 -20 99 -17 17 -20
34 -20 123 -1 154 -39 218 -152 252 -61 18 -185 18 -248 1z m173 -307 c32 -8
37 -14 37 -39 0 -59 -98 -100 -148 -63 -34 25 -39 49 -15 75 33 37 66 44 126
27z"/>
<path d="M150 655 l0 -35 1670 0 1670 0 0 35 0 35 -1670 0 -1670 0 0 -35z"/>
<path d="M5360 655 l0 -35 1510 0 1510 0 0 35 0 35 -1510 0 -1510 0 0 -35z"/>
</g>
</svg>
